<?xml version="1.0" encoding="iso-8859-1"?>
<!-- Generator: Adobe Illustrator 17.1.0, SVG Export Plug-In . SVG Version: 6.00 Build 0)  -->
<!DOCTYPE svg PUBLIC "-//W3C//DTD SVG 1.0//EN" "http://www.w3.org/TR/2001/REC-SVG-20010904/DTD/svg10.dtd">
<svg version="1.0" xmlns="http://www.w3.org/2000/svg" xmlns:xlink="http://www.w3.org/1999/xlink" x="0px" y="0px" width="110px"
	 height="110px" viewBox="0 0 110 110" style="enable-background:new 0 0 110 110;" xml:space="preserve">
<g id="Artboard">
</g>
<g id="Multicolor">
	<circle style="fill:#E04F5F;" cx="55" cy="55" r="55"/>
	<g>
		<g>
			<path style="fill:#F0F1F1;" d="M75.164,47.319C80.73,49.695,87,45.625,87,39.5c0-6.674-7.339-10.706-12.964-7.224
				C70.7,26.803,63.441,23,55,23s-15.7,3.803-19.036,9.276C30.335,28.791,23,32.83,23,39.5c0,6.128,6.274,10.193,11.836,7.819
				c2.466,4.571,8.833,4.954,11.848,0.755c1.698,3.81,2.894,8.649,2.579,9.685c-0.878-0.762-2.01-1.24-3.264-1.24
				c-3.57,0-6.041,3.675-4.567,6.982C32.827,64.183,27,65.494,27,67c0,3.603,21.341,3.129,20.994,4.129
				c-3.661,10.623-9.04,12.076-7.884,14.683C40.432,86.534,41.147,87,41.938,87H55h13.062c0.79,0,1.506-0.466,1.828-1.188
				c1.176-2.648-4.18-3.935-7.884-14.683C61.659,70.129,83,70.603,83,67c0-1.506-5.827-2.817-14.433-3.499
				c1.474-3.306-0.996-6.982-4.567-6.982c-1.254,0-2.386,0.478-3.264,1.24c-0.304-1.002,0.82-5.738,2.579-9.685
				C66.324,52.264,72.693,51.898,75.164,47.319z"/>
		</g>
		<g>
			<path style="fill:#FFFFFF;" d="M35.964,32.276C30.335,28.791,23,32.83,23,39.5c0,6.128,6.273,10.193,11.836,7.819
				c2.466,4.571,8.833,4.954,11.848,0.755c1.698,3.81,2.894,8.649,2.579,9.685c-0.878-0.762-2.01-1.24-3.264-1.24
				c-3.57,0-6.041,3.675-4.567,6.982C32.827,64.183,27,65.494,27,67c0,3.603,21.341,3.129,20.994,4.129
				c-3.661,10.623-9.04,12.076-7.884,14.683C40.432,86.534,41.147,87,41.938,87H55V23C46.559,23,39.3,26.803,35.964,32.276z"/>
		</g>
	</g>
</g>
</svg>
